<svg width="144" height="302" viewBox="0 0 144 302" fill="none" xmlns="http://www.w3.org/2000/svg">
<path fill-rule="evenodd" clip-rule="evenodd" d="M51.0039 162.61C71.1822 167.207 94.4575 158.8 105.129 141.198C109.92 133.295 113.075 125.54 114.675 117.926C136.032 130.269 144.203 147.594 141.506 169.288C139.278 187.21 130.051 206.814 114.924 229.648C100.957 250.732 74.9083 276.419 60.1687 283.373C55.764 285.451 50.6807 287.25 44.9039 288.851C36.9856 291.046 14.0077 295.507 15.5806 295.141C12.7158 295.807 10.4968 296.539 5.56578 298.332C3.12854 299.218 2.04506 299.602 0.686707 300.05L1.3133 301.95C2.69698 301.493 3.79301 301.104 6.24906 300.211C11.1047 298.446 13.2729 297.731 16.0334 297.089C14.3915 297.471 37.4286 292.998 45.4381 290.778C51.3166 289.149 56.5038 287.313 61.0221 285.182C76.1408 278.049 102.44 252.115 116.592 230.752C131.875 207.682 141.215 187.837 143.491 169.535C146.311 146.847 137.58 128.621 115.073 115.85C117.719 100.596 114.108 85.9079 104.892 71.7233C93.4527 54.1159 74.0996 38.0458 47.3016 21.857C35.9337 14.9896 27.8239 10.5952 7.77225 0.11377L6.84575 1.88622C26.8602 12.3483 34.947 16.7302 46.2675 23.5689C72.8294 39.615 91.9756 55.5134 103.215 72.8129C112.017 86.3598 115.552 100.314 113.217 114.825C112.863 114.636 112.506 114.447 112.146 114.26C104.207 110.133 85.4912 105.49 69.5744 104.236C48.7159 102.594 34.0432 106.326 29.7062 116.761C19.8929 140.373 29.648 157.746 51.0039 162.61ZM69.4173 106.23C85.086 107.464 103.547 112.044 111.224 116.035C111.771 116.32 112.312 116.607 112.844 116.898C111.335 124.492 108.221 132.24 103.419 140.162C93.2182 156.987 70.8256 165.074 51.4481 160.66C31.2694 156.064 22.2289 139.964 31.553 117.529C35.4335 108.192 49.3568 104.65 69.4173 106.23Z" fill="black"/>
</svg>
